PathFileType	4	(X/Y/Z)	Patient4_TMGait_0pt8_01_left_07.trc.trc
DataRate	CameraRate	NumFrames	NumMarkers	Units	OrigDataRate	OrigDataStartFrame	OrigNumFrames
85.365853658537	85.365853658537	4	33	mm	85.365853658537	124	       141
Frame#	Time	Sacral			L.Shoulder			Chest			R.Shoulder			Neck			R.ASIS			L.ASIS			R.Thigh.Superior			R.Thigh.Lateral			R.Thigh.Inferior			R.Patella			L.Thigh.Superior			L.Thigh.Lateral			L.Thigh.Inferior			L.Patella			L.Shank.Superior			L.Shank.Lateral			L.Shank.Inferior			R.Shank.Superior			R.Shank.Lateral			R.Shank.Inferior			R.Heel			R.Midfoot.Superior			R.Midfoot.Lateral			R.Toe			L.Heel			L.Midfoot.Lateral			L.Midfoot.Superior			L.Toe			L.Elbow			L.Wrist			R.Elbow			R.Wrist			
		X1	Y1	Z1	X2	Y2	Z2	X3	Y3	Z3	X4	Y4	Z4	X5	Y5	Z5	X6	Y6	Z6	X7	Y7	Z7	X8	Y8	Z8	X9	Y9	Z9	X10	Y10	Z10	X11	Y11	Z11	X12	Y12	Z12	X13	Y13	Z13	X14	Y14	Z14	X15	Y15	Z15	X16	Y16	Z16	X17	Y17	Z17	X18	Y18	Z18	X19	Y19	Z19	X20	Y20	Z20	X21	Y21	Z21	X22	Y22	Z22	X23	Y23	Z23	X24	Y24	Z24	X25	Y25	Z25	X26	Y26	Z26	X27	Y27	Z27	X28	Y28	Z28	X29	Y29	Z29	X30	Y30	Z30	X31	Y31	Z31	X32	Y32	Z32	X33	Y33	Z33	

124	8.420857142857	853.505610130438	996.742705660138	524.957824507867	1018.229202325841	1416.577624560499	330.035840923229	1135.371985644724	1345.535450087856	480.691752190964	1073.004892677726	1424.535227451781	660.139765009928	1025.610500649726	1478.937264318207	487.651909497770	1080.091932312358	927.623625426930	634.948752051862	1058.377497908821	940.105645280304	357.656479564748	1067.389466610088	714.194438070086	609.878452966065	954.109777660375	626.427450486924	668.150502093707	1011.182923973479	556.939385082373	589.892720119695	985.888305835534	471.430702285029	592.197036320738	1135.538019500752	765.910573361592	394.620589709219	1090.512167427941	632.542071350976	318.155999590794	1198.072651114736	580.715444666042	377.789491011721	1225.430304966105	515.011147649450	376.289243972924	1211.404087705705	441.199655071730	367.433117293096	1147.880685095393	307.917095116239	324.374345252529	1240.444820730413	214.173923827257	378.405877406130	941.405377937130	391.440148082133	597.777017496647	852.149458017267	301.967402524405	659.369156228156	874.714586342444	202.272995156077	593.203123892851	716.814216304365	49.134220707501	560.968758792172	891.286015091362	97.200799136287	595.649101950579	800.767111770425	37.871041166123	633.073117161440	1009.014440483148	39.006957589053	620.223762810923	1164.372215685020	38.340790690354	425.232258519531	1233.087378830539	42.338198245559	340.465015883564	1305.347344820115	117.552049037006	357.859069165390	1436.650322524002	86.363276015348	323.173119099762	853.160989533800	1104.095822909051	249.961260664059	780.222454658383	855.957438693763	278.813944897875	1248.484820777737	1141.544285960968	764.116271938767	1440.388494682829	1279.673344801894	689.030234759854	
125	8.432571428571	854.488014928986	995.899467437137	521.695293270423	1018.571688102338	1415.675402519661	327.478621350888	1135.526125735789	1345.043743843825	478.445139621224	1072.443244743505	1424.008594435001	657.722928468325	1025.549055574308	1478.160279799248	485.043594548522	1080.339804110273	926.552241290108	632.925440711379	1060.045056074852	939.140306498937	355.561529225877	1067.302067749229	712.983987080351	608.870048813145	953.070503316600	625.777911859972	666.342792282972	1010.732488839736	555.531407182659	589.006575410905	984.704486494214	469.296754145880	591.361535857933	1137.018220174516	764.490463674547	393.243540954053	1090.489487103547	630.939077982847	318.385135182544	1197.880638033299	578.927590814980	378.094950775961	1223.648510216025	511.845328238893	377.451627195277	1208.715443069614	437.641813337195	368.574995333207	1142.599927150070	305.377260884580	325.955322518611	1232.848425101228	209.965473814121	380.940307869608	938.489778085204	390.110200761271	596.928201912134	847.107342808124	302.764914299264	658.611023883321	867.898875254991	202.256655152250	593.136068761754	707.533718454532	50.954649587930	561.417667567593	882.495322449589	97.377117191725	596.013199674132	791.496995019355	38.394085211810	633.304625679655	999.674757149423	38.732121485310	620.317863512066	1151.694565022801	37.209599744193	427.674460498039	1220.579175916615	39.580782024385	342.872960257782	1295.561561411882	111.802589201289	361.226860590911	1426.137351098548	75.929799836198	326.377689771510	852.030860965174	1104.161174861521	248.552284848944	776.723363154425	856.782843520349	278.053232296842	1248.940022261103	1142.241078022879	762.622389061507	1437.287529050416	1284.474493488070	686.865732173286	
126	8.444285714286	855.505546310741	995.352402379666	518.437507080943	1019.104866342310	1414.990725204656	324.780790071486	1135.819934635426	1344.822428956838	476.125368071347	1071.985507750654	1423.813819276051	655.218242223498	1025.630988445890	1477.682043363309	482.242253481831	1080.691310329094	925.716543097448	630.732669097641	1061.702584284157	938.542253993760	353.444338182132	1067.460843586985	712.014877889395	607.646643175189	952.502327672831	625.217966098693	664.441956680723	1010.841172259449	554.278107741939	587.982720558131	984.231561863054	467.116828773854	590.607022326225	1138.410178290240	763.324064142986	391.784203537362	1090.445761735380	629.909851994072	318.089785600998	1197.441377167642	577.446468273978	378.131844500940	1221.580540400060	509.209539689526	378.226315868545	1205.951134080663	434.717513624031	369.226678542933	1137.762252474595	303.411382767604	326.638944346443	1225.717549546502	206.550314892066	382.761344663229	936.070561760326	388.875730269262	596.129450165454	842.436796011948	303.874690925679	657.847127915505	861.406959785996	202.508098921869	593.154962852039	698.328969955642	53.391986466376	561.938932710111	873.915824093845	97.600981125142	596.445212858379	782.260195813213	39.186872361506	633.568683993381	990.315948534242	38.455712407859	620.381377204394	1139.829406211184	36.556429208947	429.268184025593	1208.996569588200	37.557822671410	344.544172486420	1286.289728642024	107.102550199288	363.916890607557	1416.224423693627	67.163717971944	329.181621084171	851.891421520006	1103.894346866841	246.827229014776	774.736187334401	857.112053575344	276.815008446064	1248.362662847097	1142.377689435702	761.463306439697	1433.823910023442	1287.851260068188	685.069982694464	
127	8.456000000000	856.490333387264	995.154493808292	515.219608644478	1019.812812635430	1414.576634452357	321.979091316333	1136.242007975583	1344.898778685832	473.755895415238	1071.652787901519	1423.993844875605	652.643657799473	1025.849868609698	1477.543319753434	479.288951101437	1081.100458225593	925.173598660793	628.367793976545	1063.283999684843	938.353365107428	351.292459490490	1067.886484686205	711.343711147971	606.155875576500	952.530487610845	624.744196584633	662.469896062796	1011.636755283755	553.221554491886	586.801554237893	984.632590296717	464.911972547029	589.978635192897	1139.669388011301	762.513766541789	390.211094501891	1090.394565577659	629.501935153602	317.223928396482	1196.751451792314	576.340554202928	377.808631099654	1219.283532130068	507.188513439870	378.498210322182	1203.145881219681	432.482185008265	369.352068940294	1133.372599292014	302.066900260420	326.421718779331	1219.054722790643	203.971071632401	383.852393816614	934.290007223117	387.761461393129	595.421308678763	838.282398733936	305.350817045640	657.103543947556	855.359116223446	203.088386634515	593.279198512156	689.281460208094	56.619241723248	562.527899128815	865.628081538346	97.901998006653	596.953897720922	773.097470991807	40.367043253835	633.858868080275	980.936458947263	38.171427381645	620.405309666547	1128.886538039137	36.311878992136	430.113983269507	1198.377240764149	36.227127323168	345.521801582552	1277.503432836976	103.530800803980	365.854446252072	1406.892150151667	60.315576346849	331.401388719020	852.739930690097	1103.337920117282	244.773060176072	774.308617121981	856.948550132120	275.074401268602	1246.715544060815	1141.963166567532	760.631050707668	1430.051390464244	1289.796054468792	683.639321559138	
